<svg width="24" height="21" viewBox="0 0 24 21" fill="none" xmlns="http://www.w3.org/2000/svg">
<path opacity="0.15" fill-rule="evenodd" clip-rule="evenodd" d="M0 2C0 0.89543 0.895431 0 2 0H22C23.1046 0 24 0.895431 24 2V3C24 4.10457 23.1046 5 22 5H2C0.89543 5 0 4.10457 0 3V2ZM0 10C0 8.89543 0.895431 8 2 8H22C23.1046 8 24 8.89543 24 10V11C24 12.1046 23.1046 13 22 13H2C0.89543 13 0 12.1046 0 11V10ZM2 16C0.895431 16 0 16.8954 0 18V19C0 20.1046 0.89543 21 2 21H22C23.1046 21 24 20.1046 24 19V18C24 16.8954 23.1046 16 22 16H2Z" fill="black"/>
</svg>
